<?xml version="1.0" encoding="utf-8"?>
<!-- Generator: Adobe Illustrator 17.1.0, SVG Export Plug-In . SVG Version: 6.00 Build 0)  -->
<!DOCTYPE svg PUBLIC "-//W3C//DTD SVG 1.1//EN" "http://www.w3.org/Graphics/SVG/1.1/DTD/svg11.dtd">
<svg version="1.1" id="Layer_1" xmlns="http://www.w3.org/2000/svg" xmlns:xlink="http://www.w3.org/1999/xlink" x="0px" y="0px"
	 viewBox="1445.6 2110.6 768.4 768.4" enable-background="new 1445.6 2110.6 768.4 768.4" xml:space="preserve">
<circle fill="#FFFFFF" cx="1829.8" cy="2494.8" r="355.1"/>
<g>
	<path fill="#00A1E6" d="M1958.3,2394.9l-233,147.1l39.3,120.5l7.7-82.9l199.6-180.1C1980.6,2391.7,1970,2387.9,1958.3,2394.9z"/>
	<path fill="#00A1E6" d="M1829.8,2110.6c-212.2,0-384.2,172-384.2,384.2s172,384.2,384.2,384.2s384.2-172,384.2-384.2
		S2042,2110.6,1829.8,2110.6z M2055.4,2356.6l-70.6,332.7c-4.9,23.6-19.3,29.3-39.1,18.3l-107.6-79.5c-25.3,24.5-48,46.6-51.7,50.2
		c-6,5.9-10.8,10.8-21.5,10.8c-14,0-11.5-5.3-16.4-18.5l-39.6-121.2l-103.5-32.3c-23-7-23.2-22.8,5.1-34.2l414.6-159.9
		C2044.4,2314.5,2062.6,2327.7,2055.4,2356.6z"/>
</g>
</svg>
