<?xml version="1.0" encoding="utf-8"?>
<!-- Generator: Adobe Illustrator 17.1.0, SVG Export Plug-In . SVG Version: 6.00 Build 0)  -->
<!DOCTYPE svg PUBLIC "-//W3C//DTD SVG 1.1//EN" "http://www.w3.org/Graphics/SVG/1.1/DTD/svg11.dtd">
<svg version="1.1" id="Layer_1" xmlns="http://www.w3.org/2000/svg" xmlns:xlink="http://www.w3.org/1999/xlink" x="0px" y="0px"
	 viewBox="3479.9 2110.6 768.4 768.4" enable-background="new 3479.9 2110.6 768.4 768.4" xml:space="preserve">
<circle fill="#FFFFFF" cx="3864.1" cy="2494.8" r="345.3"/>
<g>
	<path fill="#05CA47" d="M3996,2548.9c-14.9-7.7-30.6-14.2-45.7-21.3c-7.7-3.6-14.2-1.5-19.3,4.5c-6.6,7.7-12.8,15.7-19.1,23.8
		c-4.9,6.4-10.4,7.9-18.1,4.3c-39.3-17.7-69.7-45.3-93.3-81.2c-3.4-5.1-3.2-9.3,0.8-13.8c5.3-6.2,10.8-12.6,15.7-19.3
		c4.5-5.9,6.4-12.3,3.2-19.4c-7.9-18.9-15.7-37.9-24.2-56.6c-1.7-3.6-6.2-7.6-9.8-8.1c-7.2-1.1-15.1-0.9-22.3,0.4
		c-14.7,2.6-23,13.6-30,25.9c-16.4,29.1-13,58.1,0.9,86.8c28.1,57.6,72.9,99.1,128,130.3c24.9,14,51.4,23.6,73.4,24.4
		c23.6,0,39.5-4.9,52.7-14.7c10.6-7.7,18.9-17.4,21.9-30.6C4014.7,2568.4,4010.4,2556.3,3996,2548.9z"/>
	<path fill="#05CA47" d="M3864.1,2110.6c-212.2,0-384.2,172-384.2,384.2s172,384.2,384.2,384.2s384.2-172,384.2-384.2
		S4076.3,2110.6,3864.1,2110.6z M3912.8,2722.6c-53.1,11.5-104.2,4.7-152.9-18.9c-6-3-11-3.4-17.2-0.8c-23,10.2-46.3,19.8-69.5,29.5
		c-2.5,0.9-4.9,1.9-9.3,3.4c5.7-21.9,9.8-42.5,16.2-62.1c5.7-17.2,3.8-30.2-7.9-45.5c-32.3-42.7-44.9-91.8-43.4-145.4
		c3-103.8,78.5-198.6,187.1-221.1c126.7-26.1,250.2,54.6,277,179.9C4121.2,2574.8,4036.2,2695.8,3912.8,2722.6z"/>
</g>
</svg>
